<svg width="40" height="29" viewBox="0 0 40 29" fill="none" xmlns="http://www.w3.org/2000/svg">
<path d="M39.2485 8.22868L20.4971 0.103074C20.1799 -0.034358 19.8201 -0.034358 19.5029 0.103074L0.75155 8.22868C-0.250399 8.66285 -0.250634 10.0885 0.75155 10.5227L7.49908 13.4466V21.2515C7.49908 25.4575 12.9901 28.7521 20 28.7521C27.0099 28.7521 32.5009 25.4575 32.5009 21.2515V13.4466L33.751 12.9049V26.2519C33.751 26.9423 34.3108 27.502 35.0011 27.502C35.6915 27.502 36.2512 26.9423 36.2512 26.2519V11.8215L39.2485 10.5228C40.2504 10.0886 40.2506 8.66293 39.2485 8.22868ZM20 2.61248L35.6073 9.37572L34.3695 9.91208L20.155 8.13523C19.4699 8.05015 18.8452 8.53558 18.7595 9.22063C18.6739 9.90568 19.1599 10.5305 19.8449 10.6161L29.8568 11.8676L20 16.1389C11.1824 12.3179 13.0604 13.1317 4.39268 9.37564L20 2.61248ZM30.0008 21.2516C30.0008 22.4294 29.034 23.6421 27.3484 24.5785C23.334 26.8087 16.6777 26.8153 12.6516 24.5785C10.966 23.6421 9.99927 22.4294 9.99927 21.2516V14.5301L19.5029 18.6484C19.8195 18.7856 20.1793 18.786 20.4971 18.6484L30.0008 14.5301V21.2516Z" fill="#7CBDED"/>
</svg>
